<?xml version="1.0" encoding="UTF-8" standalone="no"?>
<!DOCTYPE svg PUBLIC "-//W3C//DTD SVG 1.1//EN"
 "http://www.w3.org/Graphics/SVG/1.1/DTD/svg11.dtd">
<!-- Generated by graphviz version 2.43.0 (0)
 -->
<!-- Title: G Pages: 1 -->
<svg width="663pt" height="394pt"
 viewBox="0.00 0.00 663.20 394.20" xmlns="http://www.w3.org/2000/svg" xmlns:xlink="http://www.w3.org/1999/xlink">
<g id="graph0" class="graph" transform="scale(1 1) rotate(0) translate(21.6 372.6)">
<title>G</title>
<polygon fill="#111111" stroke="transparent" points="-21.6,21.6 -21.6,-372.6 641.6,-372.6 641.6,21.6 -21.6,21.6"/>
<!-- SECURITY.md -->
<g id="node1" class="node">
<title>SECURITY.md</title>
<path fill="none" stroke="#cfffac" d="M166.33,-23C166.33,-23 74.67,-23 74.67,-23 70.83,-23 67,-19.17 67,-15.33 67,-15.33 67,-7.67 67,-7.67 67,-3.83 70.83,0 74.67,0 74.67,0 166.33,0 166.33,0 170.17,0 174,-3.83 174,-7.67 174,-7.67 174,-15.33 174,-15.33 174,-19.17 170.17,-23 166.33,-23"/>
<text text-anchor="middle" x="120.5" y="-7.8" font-family="Arial" font-size="14.00" fill="#cfffac">SECURITY.md</text>
</g>
<!-- app/api/health/route.ts -->
<g id="node2" class="node">
<title>app/api/health/route.ts</title>
<path fill="none" stroke="#cfffac" d="M187.83,-64C187.83,-64 53.17,-64 53.17,-64 49.33,-64 45.5,-60.17 45.5,-56.33 45.5,-56.33 45.5,-48.67 45.5,-48.67 45.5,-44.83 49.33,-41 53.17,-41 53.17,-41 187.83,-41 187.83,-41 191.67,-41 195.5,-44.83 195.5,-48.67 195.5,-48.67 195.5,-56.33 195.5,-56.33 195.5,-60.17 191.67,-64 187.83,-64"/>
<text text-anchor="middle" x="120.5" y="-48.8" font-family="Arial" font-size="14.00" fill="#cfffac">app/api/health/route.ts</text>
</g>
<!-- app/globals.css -->
<g id="node3" class="node">
<title>app/globals.css</title>
<path fill="none" stroke="#cfffac" d="M612.33,-105C612.33,-105 517.67,-105 517.67,-105 513.83,-105 510,-101.17 510,-97.33 510,-97.33 510,-89.67 510,-89.67 510,-85.83 513.83,-82 517.67,-82 517.67,-82 612.33,-82 612.33,-82 616.17,-82 620,-85.83 620,-89.67 620,-89.67 620,-97.33 620,-97.33 620,-101.17 616.17,-105 612.33,-105"/>
<text text-anchor="middle" x="565" y="-89.8" font-family="Arial" font-size="14.00" fill="#cfffac">app/globals.css</text>
</g>
<!-- app/layout.tsx -->
<g id="node4" class="node">
<title>app/layout.tsx</title>
<path fill="none" stroke="#c6c5fe" d="M417.83,-105C417.83,-105 333.17,-105 333.17,-105 329.33,-105 325.5,-101.17 325.5,-97.33 325.5,-97.33 325.5,-89.67 325.5,-89.67 325.5,-85.83 329.33,-82 333.17,-82 333.17,-82 417.83,-82 417.83,-82 421.67,-82 425.5,-85.83 425.5,-89.67 425.5,-89.67 425.5,-97.33 425.5,-97.33 425.5,-101.17 421.67,-105 417.83,-105"/>
<text text-anchor="middle" x="375.5" y="-89.8" font-family="Arial" font-size="14.00" fill="#c6c5fe">app/layout.tsx</text>
</g>
<!-- app/layout.tsx&#45;&gt;app/globals.css -->
<g id="edge1" class="edge">
<title>app/layout.tsx&#45;&gt;app/globals.css</title>
<path fill="none" stroke="#757575" d="M425.76,-93.5C448.36,-93.5 475.44,-93.5 499.63,-93.5"/>
<polygon fill="#757575" stroke="#757575" points="499.79,-97 509.79,-93.5 499.79,-90 499.79,-97"/>
</g>
<!-- app/page.test.tsx -->
<g id="node5" class="node">
<title>app/page.test.tsx</title>
<path fill="none" stroke="#c6c5fe" d="M172.33,-105C172.33,-105 68.67,-105 68.67,-105 64.83,-105 61,-101.17 61,-97.33 61,-97.33 61,-89.67 61,-89.67 61,-85.83 64.83,-82 68.67,-82 68.67,-82 172.33,-82 172.33,-82 176.17,-82 180,-85.83 180,-89.67 180,-89.67 180,-97.33 180,-97.33 180,-101.17 176.17,-105 172.33,-105"/>
<text text-anchor="middle" x="120.5" y="-89.8" font-family="Arial" font-size="14.00" fill="#c6c5fe">app/page.test.tsx</text>
</g>
<!-- app/page.test.tsx&#45;&gt;app/layout.tsx -->
<g id="edge2" class="edge">
<title>app/page.test.tsx&#45;&gt;app/layout.tsx</title>
<path fill="none" stroke="#757575" d="M180.18,-93.5C220.82,-93.5 274.72,-93.5 315.44,-93.5"/>
<polygon fill="#757575" stroke="#757575" points="315.49,-97 325.49,-93.5 315.49,-90 315.49,-97"/>
</g>
<!-- app/page.tsx -->
<g id="node6" class="node">
<title>app/page.tsx</title>
<path fill="none" stroke="#c6c5fe" d="M159.83,-146C159.83,-146 81.17,-146 81.17,-146 77.33,-146 73.5,-142.17 73.5,-138.33 73.5,-138.33 73.5,-130.67 73.5,-130.67 73.5,-126.83 77.33,-123 81.17,-123 81.17,-123 159.83,-123 159.83,-123 163.67,-123 167.5,-126.83 167.5,-130.67 167.5,-130.67 167.5,-138.33 167.5,-138.33 167.5,-142.17 163.67,-146 159.83,-146"/>
<text text-anchor="middle" x="120.5" y="-130.8" font-family="Arial" font-size="14.00" fill="#c6c5fe">app/page.tsx</text>
</g>
<!-- components/Button/Button.tsx -->
<g id="node7" class="node">
<title>components/Button/Button.tsx</title>
<path fill="none" stroke="#cfffac" d="M466.33,-187C466.33,-187 284.67,-187 284.67,-187 280.83,-187 277,-183.17 277,-179.33 277,-179.33 277,-171.67 277,-171.67 277,-167.83 280.83,-164 284.67,-164 284.67,-164 466.33,-164 466.33,-164 470.17,-164 474,-167.83 474,-171.67 474,-171.67 474,-179.33 474,-179.33 474,-183.17 470.17,-187 466.33,-187"/>
<text text-anchor="middle" x="375.5" y="-171.8" font-family="Arial" font-size="14.00" fill="#cfffac">components/Button/Button.tsx</text>
</g>
<!-- app/page.tsx&#45;&gt;components/Button/Button.tsx -->
<g id="edge3" class="edge">
<title>app/page.tsx&#45;&gt;components/Button/Button.tsx</title>
<path fill="none" stroke="#757575" d="M167.61,-141.97C202.63,-147.65 251.7,-155.6 293.25,-162.33"/>
<polygon fill="#757575" stroke="#757575" points="292.94,-165.83 303.37,-163.97 294.06,-158.92 292.94,-165.83"/>
</g>
<!-- lp&#45;items.tsx -->
<g id="node8" class="node">
<title>lp&#45;items.tsx</title>
<path fill="none" stroke="#cfffac" d="M410.83,-146C410.83,-146 340.17,-146 340.17,-146 336.33,-146 332.5,-142.17 332.5,-138.33 332.5,-138.33 332.5,-130.67 332.5,-130.67 332.5,-126.83 336.33,-123 340.17,-123 340.17,-123 410.83,-123 410.83,-123 414.67,-123 418.5,-126.83 418.5,-130.67 418.5,-130.67 418.5,-138.33 418.5,-138.33 418.5,-142.17 414.67,-146 410.83,-146"/>
<text text-anchor="middle" x="375.5" y="-130.8" font-family="Arial" font-size="14.00" fill="#cfffac">lp&#45;items.tsx</text>
</g>
<!-- app/page.tsx&#45;&gt;lp&#45;items.tsx -->
<g id="edge4" class="edge">
<title>app/page.tsx&#45;&gt;lp&#45;items.tsx</title>
<path fill="none" stroke="#757575" d="M167.61,-134.5C211.24,-134.5 276.67,-134.5 322.22,-134.5"/>
<polygon fill="#757575" stroke="#757575" points="322.49,-138 332.49,-134.5 322.49,-131 322.49,-138"/>
</g>
<!-- components/Button/Button.stories.tsx -->
<g id="node9" class="node">
<title>components/Button/Button.stories.tsx</title>
<path fill="none" stroke="#c6c5fe" d="M233.33,-187C233.33,-187 7.67,-187 7.67,-187 3.83,-187 0,-183.17 0,-179.33 0,-179.33 0,-171.67 0,-171.67 0,-167.83 3.83,-164 7.67,-164 7.67,-164 233.33,-164 233.33,-164 237.17,-164 241,-167.83 241,-171.67 241,-171.67 241,-179.33 241,-179.33 241,-183.17 237.17,-187 233.33,-187"/>
<text text-anchor="middle" x="120.5" y="-171.8" font-family="Arial" font-size="14.00" fill="#c6c5fe">components/Button/Button.stories.tsx</text>
</g>
<!-- components/Button/Button.stories.tsx&#45;&gt;components/Button/Button.tsx -->
<g id="edge5" class="edge">
<title>components/Button/Button.stories.tsx&#45;&gt;components/Button/Button.tsx</title>
<path fill="none" stroke="#757575" d="M241.33,-175.5C249.78,-175.5 258.26,-175.5 266.63,-175.5"/>
<polygon fill="#757575" stroke="#757575" points="266.78,-179 276.78,-175.5 266.78,-172 266.78,-179"/>
</g>
<!-- components/Tooltip/Tooltip.tsx -->
<g id="node10" class="node">
<title>components/Tooltip/Tooltip.tsx</title>
<path fill="none" stroke="#cfffac" d="M211.33,-228C211.33,-228 29.67,-228 29.67,-228 25.83,-228 22,-224.17 22,-220.33 22,-220.33 22,-212.67 22,-212.67 22,-208.83 25.83,-205 29.67,-205 29.67,-205 211.33,-205 211.33,-205 215.17,-205 219,-208.83 219,-212.67 219,-212.67 219,-220.33 219,-220.33 219,-224.17 215.17,-228 211.33,-228"/>
<text text-anchor="middle" x="120.5" y="-212.8" font-family="Arial" font-size="14.00" fill="#cfffac">components/Tooltip/Tooltip.tsx</text>
</g>
<!-- jest.config.js -->
<g id="node11" class="node">
<title>jest.config.js</title>
<path fill="none" stroke="#cfffac" d="M158.33,-269C158.33,-269 82.67,-269 82.67,-269 78.83,-269 75,-265.17 75,-261.33 75,-261.33 75,-253.67 75,-253.67 75,-249.83 78.83,-246 82.67,-246 82.67,-246 158.33,-246 158.33,-246 162.17,-246 166,-249.83 166,-253.67 166,-253.67 166,-261.33 166,-261.33 166,-265.17 162.17,-269 158.33,-269"/>
<text text-anchor="middle" x="120.5" y="-253.8" font-family="Arial" font-size="14.00" fill="#cfffac">jest.config.js</text>
</g>
<!-- jest.setup.js -->
<g id="node12" class="node">
<title>jest.setup.js</title>
<path fill="none" stroke="#cfffac" d="M156.83,-310C156.83,-310 84.17,-310 84.17,-310 80.33,-310 76.5,-306.17 76.5,-302.33 76.5,-302.33 76.5,-294.67 76.5,-294.67 76.5,-290.83 80.33,-287 84.17,-287 84.17,-287 156.83,-287 156.83,-287 160.67,-287 164.5,-290.83 164.5,-294.67 164.5,-294.67 164.5,-302.33 164.5,-302.33 164.5,-306.17 160.67,-310 156.83,-310"/>
<text text-anchor="middle" x="120.5" y="-294.8" font-family="Arial" font-size="14.00" fill="#cfffac">jest.setup.js</text>
</g>
<!-- styles/tailwind.css -->
<g id="node13" class="node">
<title>styles/tailwind.css</title>
<path fill="none" stroke="#cfffac" d="M174.83,-351C174.83,-351 66.17,-351 66.17,-351 62.33,-351 58.5,-347.17 58.5,-343.33 58.5,-343.33 58.5,-335.67 58.5,-335.67 58.5,-331.83 62.33,-328 66.17,-328 66.17,-328 174.83,-328 174.83,-328 178.67,-328 182.5,-331.83 182.5,-335.67 182.5,-335.67 182.5,-343.33 182.5,-343.33 182.5,-347.17 178.67,-351 174.83,-351"/>
<text text-anchor="middle" x="120.5" y="-335.8" font-family="Arial" font-size="14.00" fill="#cfffac">styles/tailwind.css</text>
</g>
</g>
</svg>
